<svg xmlns="http://www.w3.org/2000/svg" viewBox="0 0 24 24" fill="none" stroke="currentColor" stroke-width="2" stroke-linecap="round" stroke-linejoin="round">
  <path d="M17.05 20.28c-.98.95-2.05.88-3.08.4-1.09-.5-2.08-.48-3.24 0-1.44.62-2.2.44-3.06-.4C2.79 15.25 3.51 7.59 9.05 7.31c1.35.07 2.29.74 3.08.78 1.18-.19 2.31-.89 3.57-.84 1.51.07 2.65.72 3.4 1.8-3.12 1.87-2.38 5.98.48 7.13-.57 1.5-1.31 2.99-2.53 4.1z" fill="#000"/>
  <path d="M12.03 7.25c-.15-2.23 1.66-4.07 3.74-4.25.32 2.32-1.88 4.18-3.74 4.25z" fill="#000"/>
</svg> 